<?xml version="1.0" standalone="no"?>
<!DOCTYPE svg PUBLIC "-//W3C//DTD SVG 20010904//EN"
 "http://www.w3.org/TR/2001/REC-SVG-20010904/DTD/svg10.dtd">
<svg version="1.0" xmlns="http://www.w3.org/2000/svg"
 width="512.000000pt" height="512.000000pt" viewBox="0 0 512.000000 512.000000"
 preserveAspectRatio="xMidYMid meet">

<g transform="translate(0.000000,512.000000) scale(0.100000,-0.100000)"
fill="#000000" stroke="none">
<path d="M2006 4649 c-50 -27 -119 -97 -145 -148 -20 -38 -21 -57 -21 -326 l0
-285 -345 0 -345 0 0 -1720 0 -1720 1410 0 1410 0 0 1720 0 1720 -339 0 -340
0 -3 288 -3 287 -27 45 c-35 60 -91 115 -143 140 -40 19 -60 20 -556 20 -497
-1 -515 -2 -553 -21z m1022 -496 l-3 -258 -462 -3 -463 -2 0 260 0 260 465 0
465 0 -2 -257z"/>
<path d="M330 3867 c-118 -49 -243 -160 -295 -263 l-30 -59 0 -1375 0 -1375
26 -56 c15 -31 56 -88 94 -128 53 -56 86 -80 153 -114 l85 -42 259 -3 258 -3
0 1720 0 1721 -247 0 c-235 0 -251 -2 -303 -23z"/>
<path d="M4250 2170 l0 -1720 234 0 c206 0 242 2 299 20 128 40 238 135 300
260 l32 65 0 1375 0 1375 -30 60 c-44 88 -161 202 -254 248 l-74 37 -253 0
-254 0 0 -1720z"/>
</g>
</svg>
